<?xml version="1.0" encoding="utf-8"?>
<!-- Generator: Adobe Illustrator 17.1.0, SVG Export Plug-In . SVG Version: 6.00 Build 0)  -->
<!DOCTYPE svg PUBLIC "-//W3C//DTD SVG 1.1//EN" "http://www.w3.org/Graphics/SVG/1.1/DTD/svg11.dtd">
<svg version="1.1" id="Layer_1" xmlns="http://www.w3.org/2000/svg" xmlns:xlink="http://www.w3.org/1999/xlink" x="0px" y="0px"
	 viewBox="0 0 24 24" enable-background="new 0 0 24 24" xml:space="preserve">
<g>
	<path fill="#333333" d="M19.376,9.81c-0.016-0.1-0.077-0.197-0.168-0.29c-0.733,0.745-3.683,0.868-7.209,0.868
		s-6.473-0.123-7.21-0.868C4.699,9.613,4.642,9.71,4.621,9.81H4.615l0.002,0.054c0,0.006-0.002,0.012-0.002,0.019
		c0,0.014,0.004,0.028,0.006,0.041l0.574,11.76h0.001C5.247,22.606,6.303,24,11.999,24c5.696,0,6.753-1.394,6.803-2.316h0.004
		l0.575-11.76c0.001-0.014,0.006-0.027,0.006-0.041c0-0.006-0.004-0.012-0.004-0.019l0.004-0.054H19.376z"/>
	<path fill="#333333" d="M15.509,3.655V0.806c0-0.464-0.38-0.844-0.844-0.844H9.026c-0.463,0-0.842,0.379-0.842,0.842v2.882
		C5.467,3.994,3.607,4.618,3.607,5.341v1.373c0,0.282,0.285,0.55,0.797,0.792c1.34,0.629,4.238,1.066,7.595,1.066
		c3.36,0,6.256-0.437,7.598-1.066c0.509-0.242,0.796-0.51,0.796-0.792V5.341C20.393,4.593,18.389,3.949,15.509,3.655z M9.941,3.54
		L9.709,3.554v-1.15c0-0.503,0.07-0.915,0.153-0.915c0.085,0,0.565,0,1.069,0h1.831c0.501,0,0.983,0,1.067,0
		c0.084,0,0.153,0.412,0.153,0.915v1.132c-0.637-0.033-1.299-0.054-1.985-0.054C11.288,3.482,10.598,3.503,9.941,3.54z"/>
</g>
</svg>
